<?xml version="1.0" encoding="UTF-8" standalone="no"?>
<svg
   xmlns="http://www.w3.org/2000/svg"
   viewBox="0 0 130 130"
   version="1.1"
   id="svg8">
  <defs
     id="defs2" />
  <g
     id="layer1"
     transform="translate(0,-167)"
     style="opacity:1.0">
    <g
       id="use4639"
       transform="translate(38.364584,103.1875)">
      <g
         style="fill:#51a7f9"
         id="g4660"
         transform="matrix(0.81160793,0,0,0.84941141,47.117218,145.33298)">
        <path
           style="fill:#7aa228;fill-opacity:1;stroke:none;stroke-width:0.50078738;stroke-linecap:butt;stroke-linejoin:miter;stroke-miterlimit:4;stroke-dasharray:none;stroke-opacity:1"
           d="m -66.453115,46.126979 14.864297,-19.642071 c -29.427014,-14.373093 -40.749869,-62.29804 -9.779969,-85.659806 16.448755,1.43893 29.339906,12.459608 36.016354,30.747081 v 0 c 6.36351,-18.287473 19.4611384,-29.09834 35.703415,-30.747081 31.319185,22.471794 19.559937,72.310226 -9.77996819,85.659806 L 15.253798,46.048316 c 52.95308,-31.671071 48.670675,-108.22384 -4.895715,-129.842673 -17.0071984,1.080497 -30.977001,10.6024 -35.866985,18.389655 -4.889984,-7.787255 -18.992108,-17.351057 -35.944213,-18.468318 -55.880855,24.074492 -54.908175,99.625809 -5,129.999999 z"
           id="path4658" />
      </g>
    </g>
  </g>
</svg>
